<svg width="16" height="16" viewBox="0 0 16 16" fill="none" xmlns="http://www.w3.org/2000/svg">
<path d="M10.6667 14.3334C10.4017 14.3324 10.1478 14.227 9.95999 14.04L4.62666 8.7067C4.43775 8.52007 4.33142 8.26558 4.33142 8.00003C4.33142 7.73448 4.43775 7.47998 4.62666 7.29336L9.95999 1.96003C10.2093 1.69249 10.5847 1.58236 10.939 1.67285C11.2934 1.76333 11.57 2.04 11.6605 2.39431C11.751 2.74862 11.6409 3.12407 11.3733 3.37336L6.74666 8.00003L11.3733 12.6267C11.5622 12.8133 11.6686 13.0678 11.6686 13.3334C11.6686 13.5989 11.5622 13.8534 11.3733 14.04C11.1856 14.227 10.9316 14.3324 10.6667 14.3334Z" fill="#F6F6F7"/>
</svg>
