<svg width="375" height="322" viewBox="0 0 375 322" fill="none" xmlns="http://www.w3.org/2000/svg">
<rect width="375" height="322" fill="#25282D"/>
<path d="M262.176 24.347L220.878 130.618L280.979 87.5579L297.501 110.745L231.065 158.344L296.653 162.515L294.855 190.956L254.021 188.359L342 236.036L328.488 261.107L223.906 204.433L261.576 277.98L236.295 291L203.101 226.191L202.074 266.654L173.663 265.929L174.643 227.338L145.312 279.949L120.505 266.043L148.388 216.028L90.0388 256.025L74 232.499L149.672 180.627L99.8651 176.079L102.442 147.699L148.465 151.901L77.8904 89.2254L96.7334 67.8915L159.226 123.39L143.089 76.5023L169.954 67.2051L191.12 128.704L235.695 14L262.176 24.347Z" fill="#2F7FFF"/>
<path d="M118.951 43.919C122.829 43.5447 125.764 44.6514 127.78 46.8176C129.695 48.8748 130.534 51.6262 130.887 54.1182C131.64 52.9715 132.483 51.8304 133.411 50.7826C135.62 48.2876 138.618 45.9788 142.297 45.8904C146.078 45.7996 149.763 48.0567 153.282 52.8159C156.799 57.5737 157.852 61.7777 156.517 65.3716C155.232 68.8313 152 70.9346 148.879 72.2379C148.679 72.3215 148.477 72.4025 148.274 72.4812C148.545 72.5588 148.815 72.6395 149.082 72.7244C152.269 73.736 155.704 75.4525 157.286 78.5444C158.999 81.8924 158.118 85.8778 154.86 90.2957C151.563 94.7676 147.951 96.8807 144.214 97.0142C140.578 97.144 137.365 95.3726 134.847 93.2918C134.017 92.6056 133.236 91.8639 132.512 91.1055C132.65 92.5107 132.718 93.9741 132.664 95.4239C132.538 98.8564 131.72 102.638 129.093 105.228C126.354 107.929 122.199 108.823 116.595 107.638C111.081 106.472 107.631 104.174 106.266 100.782C104.943 97.4943 105.914 93.9579 107.302 91.0957C107.443 90.8065 107.589 90.5195 107.742 90.2351C106.99 90.5496 106.222 90.8321 105.448 91.0668C102.112 92.0783 98.1532 92.3497 94.9589 89.8488C91.8125 87.3853 90.0916 82.7514 89.8813 75.6961C89.67 68.6076 91.2013 63.8519 94.3108 61.1691C97.433 58.4754 101.506 58.42 105.036 59.1587C107.798 59.7365 110.522 60.8557 112.798 61.9854C112.277 60.6649 111.783 59.227 111.408 57.7642C110.715 55.0535 110.333 51.8931 111.315 49.2013C111.825 47.8007 112.702 46.538 114.04 45.5891C115.362 44.6523 117.012 44.1062 118.951 43.919ZM124.661 49.7627C123.695 48.725 122.143 47.9368 119.359 48.2056C117.968 48.3399 117.077 48.7027 116.502 49.1102C115.945 49.5054 115.57 50.0224 115.329 50.685C114.806 52.1197 114.917 54.2202 115.549 56.6898C116.163 59.0867 117.176 61.4936 118.059 63.3324C118.497 64.2442 118.895 64.9998 119.181 65.5244C119.324 65.7864 119.439 65.99 119.517 66.1257C119.556 66.1936 119.585 66.2445 119.604 66.2771C119.614 66.2934 119.621 66.3053 119.625 66.3123C119.627 66.3158 119.628 66.3182 119.629 66.3193C119.629 66.3199 119.629 66.3202 119.629 66.3202L119.629 66.3199C119.629 66.32 119.628 66.3203 119.626 66.3219L116.555 69.1747C116.553 69.1776 116.552 69.1783 116.552 69.1785C116.552 69.1783 116.551 69.1781 116.551 69.1778C116.549 69.1766 116.546 69.1742 116.541 69.1708C116.532 69.1639 116.516 69.1527 116.494 69.1373C116.45 69.1065 116.382 69.059 116.292 68.9971C116.112 68.8732 115.842 68.6914 115.497 68.4674C114.805 68.0187 113.813 67.4041 112.626 66.7487C110.221 65.4219 107.138 63.9967 104.166 63.3749C101.15 62.7439 98.7275 63.029 97.093 64.4393C95.4458 65.8604 93.9589 68.9721 94.1555 75.5669C94.353 82.1949 95.963 85.1804 97.5835 86.4492C99.1561 87.6805 101.4 87.7971 104.216 86.9433C106.989 86.1026 109.831 84.4533 112.042 82.9466C113.133 82.2033 114.04 81.5155 114.672 81.0156C114.987 80.766 115.233 80.5643 115.397 80.4271C115.479 80.3586 115.541 80.3062 115.581 80.2722C115.601 80.2552 115.615 80.2428 115.624 80.2352C115.628 80.2314 115.631 80.2288 115.633 80.2275C115.633 80.2271 115.633 80.2268 115.634 80.2267C115.634 80.2267 115.634 80.2273 115.67 80.2693L118.44 83.3935C118.476 83.4326 118.481 83.4378 118.481 83.4384C118.481 83.4385 118.481 83.4388 118.481 83.4391C118.48 83.4402 118.477 83.4425 118.473 83.4459C118.466 83.4528 118.454 83.4642 118.437 83.48C118.404 83.5115 118.352 83.5607 118.284 83.6262C118.148 83.7574 117.947 83.9542 117.696 84.2085C117.193 84.7179 116.493 85.4539 115.715 86.3504C114.141 88.1646 112.327 90.5468 111.145 92.9852C109.929 95.4917 109.599 97.5992 110.229 99.1643C110.816 100.625 112.573 102.387 117.474 103.424C122.283 104.441 124.756 103.477 126.101 102.151C127.558 100.715 128.279 98.302 128.391 95.2646C128.5 92.2894 128.009 89.1178 127.465 86.6365C127.196 85.4077 126.92 84.3734 126.712 83.6499C126.608 83.2886 126.522 83.006 126.462 82.8168C126.433 82.7223 126.41 82.6512 126.395 82.6053C126.387 82.5824 126.382 82.5659 126.379 82.5558C126.377 82.5508 126.376 82.5473 126.375 82.5456L126.375 82.5446C126.375 82.5446 126.377 82.5438 126.387 82.5405L130.272 80.8448C130.285 80.8378 130.285 80.8381 130.285 80.838V80.8381C130.286 80.8392 130.287 80.8418 130.289 80.8457C130.293 80.8534 130.301 80.8667 130.311 80.8852C130.331 80.9222 130.363 80.98 130.406 81.0568C130.492 81.2105 130.623 81.4399 130.796 81.7293C131.142 82.3091 131.653 83.1257 132.303 84.0577C133.616 85.9404 135.439 88.2096 137.56 89.9632C139.706 91.7368 141.917 92.7872 144.063 92.7106C146.107 92.6376 148.634 91.5158 151.427 87.7283C154.26 83.8867 154.107 81.7323 153.485 80.517C152.732 79.0455 150.769 77.7748 147.797 76.8316C144.939 75.9245 141.661 75.4802 139.04 75.2689C137.741 75.1642 136.628 75.1186 135.843 75.0991C135.451 75.0894 135.142 75.0863 134.934 75.0855C134.83 75.0852 134.751 75.0854 134.699 75.0857C134.674 75.0858 134.655 75.086 134.643 75.0861C134.637 75.0862 134.633 75.0862 134.631 75.0862H134.629C134.629 75.0862 134.629 75.0863 134.628 74.995L134.54 70.9035C134.537 70.7812 134.537 70.7811 134.537 70.7811H134.538C134.54 70.7811 134.544 70.7809 134.549 70.7807C134.56 70.7803 134.578 70.7797 134.603 70.7788C134.653 70.7768 134.729 70.7736 134.831 70.7685C135.033 70.7585 135.335 70.7414 135.717 70.7132C136.482 70.6567 137.565 70.5563 138.826 70.3821C141.375 70.0299 144.534 69.3903 147.241 68.2601C150.021 67.0992 151.86 65.6166 152.512 63.8626C153.114 62.2427 152.97 59.6049 149.852 55.3874C146.735 51.1712 144.206 50.152 142.399 50.1954C140.49 50.2413 138.525 51.4771 136.602 53.6488C134.719 55.7749 133.167 58.4745 132.07 60.7088C131.527 61.8136 131.108 62.7787 130.826 63.4641C130.686 63.8063 130.58 64.0777 130.51 64.2603C130.475 64.3515 130.449 64.4205 130.432 64.4651C130.424 64.4873 130.418 64.5036 130.415 64.5133C130.413 64.5181 130.412 64.5215 130.411 64.5231C130.411 64.5234 130.411 64.5236 130.411 64.5238C130.41 64.5236 130.408 64.5229 130.397 64.5189L126.327 63.3431C126.31 63.3395 126.31 63.3393 126.31 63.3395C126.31 63.3396 126.31 63.34 126.31 63.3402C126.31 63.3404 126.31 63.3405 126.31 63.3403C126.31 63.3398 126.31 63.3382 126.311 63.3355C126.312 63.3301 126.314 63.3203 126.317 63.3062C126.322 63.2781 126.331 63.2329 126.343 63.1718C126.367 63.0495 126.401 62.864 126.44 62.6248C126.519 62.1457 126.62 61.4551 126.701 60.6283C126.867 58.9572 126.947 56.8087 126.657 54.7471C126.362 52.6524 125.722 50.9024 124.661 49.7627Z" fill="#F6F6F7"/>
<path d="M271.38 136.487C273.998 128.607 264.028 124.657 260.388 130.02C258.837 132.223 255.394 138.952 253.685 142.936C252.471 138.195 245.924 137.026 242.614 141.66C246.359 132.789 235.002 129.048 231.45 137.138C232.482 131.409 233.957 122.447 234.217 116.721C234.624 107.756 224.434 107.112 222.555 113.785C220.677 120.458 218.911 129.69 217.856 140.389C212.261 140.544 208.527 142.941 207.004 150.351C203.659 166.62 208.765 178.658 224.762 183.876C251.602 192.632 264.606 154.658 271.38 136.487Z" fill="#2F7FFF"/>
<path d="M234.432 110.343C233.179 108.699 231.418 107.73 229.57 107.427C225.889 106.824 221.853 108.88 220.623 113.251C218.807 119.702 217.109 128.44 216.031 138.528C213.646 138.81 211.445 139.574 209.599 141.138C207.316 143.073 205.851 145.999 205.038 149.954C203.311 158.352 203.71 165.918 206.833 172.142C209.979 178.411 215.742 183.026 224.134 185.764C231.36 188.121 237.764 187.342 243.338 184.486C248.842 181.666 253.422 176.885 257.246 171.41C264.875 160.487 269.906 146.178 273.262 137.175L273.274 137.142L273.286 137.108C274.082 134.713 273.956 132.477 273.114 130.593C272.282 128.732 270.81 127.345 269.131 126.51C265.85 124.88 261.255 125.196 258.732 128.896C257.478 130.684 255.203 134.979 253.416 138.708C251.287 136.782 248.133 136.241 245.302 137.231C245.218 136.569 245.054 135.935 244.812 135.335C243.991 133.3 242.361 131.87 240.465 131.174C238.565 130.477 236.422 130.515 234.477 131.336C235.272 126.403 236.038 120.848 236.221 116.81C236.34 114.189 235.688 111.991 234.432 110.343ZM262.053 131.129C263.173 129.48 265.376 129.092 267.332 130.064C268.272 130.531 269.03 131.274 269.444 132.203C269.846 133.102 269.986 134.305 269.483 135.837C266.066 145.005 261.212 158.744 253.946 169.147C250.318 174.342 246.19 178.549 241.495 180.954C236.871 183.323 231.584 184.008 225.389 181.987C217.785 179.507 212.997 175.493 210.427 170.372C207.834 165.205 207.352 158.618 208.97 150.747C209.68 147.292 210.844 145.315 212.207 144.16C213.559 143.015 215.38 142.446 217.912 142.376C221.383 142.28 225.446 143.122 228.864 144.231C231.656 145.347 234.011 146.805 235.116 147.892C236.023 148.783 236.568 149.728 236.841 150.623C237.316 152.182 236.992 153.651 236.178 154.669C235.051 156.076 233.241 156.415 230.538 155.895C227.771 155.363 225.125 154.169 222.601 153.346L216.485 151.351L215.23 155.127L221.346 157.122C222.884 157.624 223.93 159.015 224.43 161.222C224.929 163.424 224.768 166.052 224.199 168.163L228.077 169.188C228.781 166.571 229.011 163.285 228.346 160.351C228.275 160.036 228.191 159.72 228.096 159.407C228.658 159.558 229.221 159.692 229.774 159.798C232.176 160.26 234.987 160.336 237.324 158.912C238.576 160.204 240.278 160.922 241.937 161.141C244.384 161.465 247.184 160.774 248.998 158.782C251.797 155.708 253.754 151.279 254.896 148.896C255.842 146.923 256.087 144.95 255.779 143.146C257.536 139.162 260.671 133.093 262.034 131.157L262.043 131.143L262.053 131.129ZM244.356 142.667C246.857 139.362 251.027 140.637 251.74 143.425C252.011 144.484 251.954 145.766 251.271 147.191C250.019 149.805 248.329 153.581 246.019 156.119C245.278 156.932 243.907 157.39 242.468 157.2C241.436 157.064 240.606 156.631 240.083 155.998C241.021 154.285 241.309 152.252 240.88 150.237L244.356 142.667ZM233.29 137.931C234.652 134.83 237.279 134.245 239.072 134.903C239.991 135.24 240.719 135.902 241.086 136.811C241.446 137.705 241.536 139.046 240.773 140.868L238.549 145.711C238.358 145.493 238.156 145.279 237.943 145.07C236.615 143.764 234.447 142.391 232.034 141.266C232.504 139.883 232.862 138.905 233.29 137.931ZM228.916 111.35C229.8 111.495 230.628 111.95 231.229 112.739C231.828 113.525 232.297 114.77 232.212 116.632C231.962 122.135 230.546 130.816 229.515 136.564C229.078 137.581 228.704 138.609 228.266 139.895C225.699 139.176 222.843 138.61 220.076 138.443C221.137 128.751 222.772 120.417 224.488 114.319C225.136 112.017 227.135 111.058 228.916 111.35Z" fill="#F6F6F7"/>
<path d="M50.0049 211.346C49.0857 204.903 51.8535 198.728 57.9585 193.815C64.0151 188.942 73.4059 185.24 86.1016 183.428L86.6456 187.241C74.3438 188.997 65.6995 192.53 60.3722 196.817C55.0934 201.064 53.1285 205.976 53.817 210.802C54.658 216.698 59.6458 221.725 69.3157 223.935L71.1792 224.362L68.8806 234.765L79.747 225.092L80.4817 225.094C83.9767 225.1 87.7947 224.828 91.9235 224.239C103.897 222.53 112.55 218.999 117.966 214.691C123.349 210.408 125.436 205.469 124.752 200.678C124.094 196.065 120.592 191.338 113.829 189.355C107.026 187.359 96.7665 188.122 82.8624 195.073L81.1408 191.628C95.5569 184.421 106.853 183.295 114.912 185.658C123.011 188.034 127.677 193.913 128.564 200.134C129.488 206.612 126.523 212.805 120.363 217.705C114.235 222.58 104.853 226.284 92.4675 228.052C88.4599 228.624 84.7044 228.913 81.2136 228.943L62.5534 245.553L66.6038 227.22C57.1185 224.567 51.0862 218.926 50.0049 211.346Z" fill="#F6F6F7"/>
<path d="M79.8801 202.689C79.8803 202.689 79.8806 202.69 79.8811 202.691C79.8823 202.694 79.8845 202.7 79.8876 202.709C79.894 202.726 79.9042 202.753 79.9182 202.789C79.9463 202.862 79.9896 202.973 80.0473 203.116C80.1628 203.402 80.3357 203.816 80.5601 204.311C81.0117 205.308 81.6595 206.609 82.4559 207.87C83.2637 209.148 84.1626 210.286 85.0874 211.039C86.0098 211.79 86.7535 212.003 87.3742 211.906C87.9982 211.81 88.6072 211.38 89.1819 210.293C89.764 209.191 90.155 207.681 90.3923 206.039C90.6257 204.423 90.6922 202.813 90.6984 201.594C90.7015 200.989 90.6897 200.488 90.6773 200.141C90.6711 199.968 90.6647 199.834 90.6601 199.746C90.6578 199.702 90.6558 199.669 90.6546 199.648C90.654 199.637 90.6535 199.63 90.6532 199.626C90.6531 199.624 90.653 199.622 90.6529 199.622C90.6529 199.622 90.653 199.622 90.653 199.622L90.653 199.622C90.653 199.622 90.6531 199.622 90.6576 199.622L94.3907 198.871C94.3953 198.869 94.3953 198.869 94.3953 198.869C94.3955 198.87 94.3961 198.871 94.3969 198.874C94.3986 198.878 94.4014 198.887 94.4053 198.898C94.4132 198.92 94.4257 198.956 94.4427 199.003C94.4768 199.098 94.5289 199.241 94.5983 199.424C94.7373 199.792 94.9447 200.321 95.2146 200.953C95.7571 202.225 96.5394 203.889 97.5094 205.502C98.4913 207.134 99.6024 208.607 100.77 209.586C101.932 210.561 102.936 210.882 103.843 210.724C104.729 210.57 105.586 209.951 106.407 208.728C107.227 207.506 107.869 205.879 108.352 204.161C108.83 202.463 109.124 200.779 109.299 199.51C109.386 198.879 109.442 198.357 109.476 197.997C109.494 197.817 109.505 197.678 109.512 197.586C109.516 197.54 109.519 197.505 109.52 197.484C109.521 197.473 109.521 197.465 109.522 197.461L109.522 197.457C109.523 197.457 109.576 197.461 111.443 197.579C113.346 197.699 113.365 197.701 113.365 197.701C113.365 197.701 113.365 197.702 113.365 197.702C113.365 197.703 113.365 197.705 113.365 197.706C113.364 197.709 113.364 197.713 113.364 197.717C113.363 197.726 113.362 197.738 113.361 197.754C113.359 197.785 113.356 197.829 113.351 197.886C113.343 197.998 113.329 198.159 113.31 198.362C113.271 198.768 113.209 199.344 113.114 200.036C112.924 201.413 112.599 203.282 112.059 205.205C111.523 207.108 110.746 209.173 109.604 210.875C108.462 212.577 106.813 214.117 104.502 214.519C102.058 214.944 99.9362 213.915 98.295 212.537C96.6594 211.165 95.2897 209.283 94.2099 207.488C94.1705 207.422 94.1314 207.357 94.0926 207.291C93.8134 208.918 93.3558 210.637 92.586 212.093C91.697 213.775 90.242 215.359 87.9646 215.713C85.8614 216.039 84.0437 215.156 82.6561 214.026C81.3279 212.944 80.2072 211.494 79.3147 210.106C79.3032 210.163 79.2916 210.22 79.2798 210.277C78.9297 211.967 78.3725 213.839 77.4334 215.289C76.4637 216.787 74.8535 218.132 72.5329 217.848C70.8981 217.648 69.6235 216.705 68.6953 215.698C67.7604 214.683 67.0305 213.449 66.4805 212.324C65.924 211.187 65.512 210.08 65.2403 209.266C65.1035 208.856 65.0003 208.513 64.9303 208.27C64.8952 208.149 64.8684 208.051 64.8498 207.982C64.8405 207.948 64.8332 207.92 64.828 207.9C64.8254 207.89 64.8233 207.882 64.8217 207.876C64.8209 207.873 64.8203 207.87 64.8197 207.868C64.8195 207.867 64.8193 207.866 64.8191 207.865C64.819 207.865 64.8188 207.864 64.8188 207.864C64.8202 207.863 64.8722 207.85 66.6849 207.39C68.4899 206.933 68.5492 206.918 68.5511 206.917C68.5515 206.918 68.5525 206.922 68.5538 206.927C68.5565 206.937 68.5612 206.955 68.5678 206.98C68.581 207.029 68.602 207.105 68.6306 207.204C68.6879 207.403 68.7755 207.694 68.893 208.047C69.13 208.757 69.4805 209.694 69.9392 210.631C70.4043 211.582 70.9422 212.453 71.5267 213.087C72.1178 213.729 72.6143 213.978 73.0009 214.025C73.313 214.063 73.6824 213.997 74.2013 213.196C74.7507 212.347 75.1908 211.033 75.5091 209.496C75.8195 207.998 75.981 206.457 76.0637 205.276C76.1048 204.689 76.1259 204.199 76.1366 203.859C76.142 203.69 76.1447 203.558 76.1461 203.47C76.1468 203.426 76.1473 203.394 76.1475 203.373C76.1476 203.362 76.1476 203.355 76.1476 203.351C76.1476 203.349 76.1477 203.347 76.1477 203.347C76.1477 203.347 76.1479 203.347 76.1511 203.347L79.8761 202.69C79.8792 202.689 79.8799 202.689 79.8801 202.689Z" fill="#F6F6F7"/>
</svg>
